<svg width="151" height="55" viewBox="0 0 151 55" fill="none" xmlns="http://www.w3.org/2000/svg">
<path fill-rule="evenodd" clip-rule="evenodd" d="M28.1538 50.9299C30.8991 51.4101 32.8869 51.99 35.1733 53.2374C44.1865 58.1552 52.0187 48.2443 47.7517 41.0604C41.6294 30.753 27.754 39.3415 28.1538 50.9299Z" fill="#FFDD00"/>
<path fill-rule="evenodd" clip-rule="evenodd" d="M48.656 35.7728C50.6678 32.6855 50.2972 32.6243 52.7345 30.2048C60.844 22.1543 53.4972 12.8345 45.5936 14.1186C40.8628 14.8871 36.486 20.1252 38.6512 26.0298C40.2307 30.337 44.9725 35.0762 48.656 35.7728Z" fill="#0264D3"/>
<path fill-rule="evenodd" clip-rule="evenodd" d="M40.5825 11.7164C39.4858 9.80278 38.5293 10.4408 36.4958 5.95343C32.384 -3.11993 21.466 -0.930318 19.3354 6.54422C17.2184 13.9712 24.6952 21.733 34.961 16.3404C37.0844 15.2251 39.7906 13.1562 40.5825 11.7164Z" fill="#FFDD00"/>
<path fill-rule="evenodd" clip-rule="evenodd" d="M7.4157 35.8824C8.41593 43.9947 5.18733 46.722 9.54989 51.5988C17.8657 60.895 31.4345 47.0457 22.2722 38.8817C18.6378 35.6431 13.2644 35.0364 7.4157 35.8824Z" fill="#0264D3"/>
<path fill-rule="evenodd" clip-rule="evenodd" d="M15.1578 11.8497C13.3134 12.3027 13.0405 13.6042 8.14067 14.0411C-3.09105 15.0427 -2.21259 31.0698 7.7797 31.9993C11.8896 32.3817 15.3318 30.6579 16.9915 26.7283C19.1406 21.6402 17.849 14.9893 15.1578 11.8497Z" fill="#0264D3"/>
<path d="M73.7476 13.0961C74.9025 13.0961 75.9118 13.325 76.7754 13.7828C77.639 14.2406 78.3074 14.8831 78.7809 15.7102C79.2542 16.5374 79.4909 17.492 79.4909 18.5741C79.4909 19.6457 79.2542 20.5978 78.7809 21.4301C78.3074 22.2625 77.6363 22.9076 76.7676 23.3654C75.8988 23.8232 74.8922 24.0521 73.7476 24.0521H69.6431V13.0961H73.7476ZM73.5759 21.7422C74.5852 21.7422 75.3708 21.4665 75.9326 20.9151C76.4944 20.3637 76.7754 19.5833 76.7754 18.5741C76.7754 17.5648 76.4944 16.7793 75.9326 16.2174C75.3708 15.6556 74.5852 15.3747 73.5759 15.3747H72.3118V21.7422H73.5759Z" fill="#0264D3" stroke="#0264D3" stroke-width="0.0762" stroke-miterlimit="22.9256"/>
<path d="M82.3314 14.4381C81.8632 14.4381 81.4808 14.3003 81.1843 14.0246C80.8877 13.7489 80.7395 13.4081 80.7395 13.0023C80.7395 12.5862 80.8877 12.2402 81.1843 11.9645C81.4808 11.6888 81.8632 11.5509 82.3314 11.5509C82.7892 11.5509 83.1664 11.6888 83.4628 11.9645C83.7594 12.2402 83.9077 12.5862 83.9077 13.0023C83.9077 13.4081 83.7594 13.7489 83.4628 14.0246C83.1664 14.3003 82.7892 14.4381 82.3314 14.4381ZM83.658 15.3433V24.0519H80.9892V15.3433H83.658Z" fill="#0264D3" stroke="#0264D3" stroke-width="0.0762" stroke-miterlimit="22.9256"/>
<path d="M88.9019 15.2186C89.5158 15.2186 90.0542 15.3434 90.5172 15.5931C90.9802 15.8429 91.3366 16.1706 91.5863 16.5764V15.3434H94.255V24.0365C94.255 24.8376 94.0964 25.5633 93.779 26.2136C93.4617 26.8638 92.9778 27.3815 92.3276 27.7665C91.6773 28.1515 90.8683 28.3439 89.9008 28.3439C88.6106 28.3439 87.5649 28.0396 86.7638 27.4309C85.9626 26.8222 85.5048 25.9977 85.3904 24.9573H88.0279C88.1112 25.2902 88.3088 25.5529 88.621 25.7454C88.9331 25.9379 89.3181 26.0341 89.7758 26.0341C90.3273 26.0341 90.7669 25.8755 91.0946 25.5581C91.4224 25.2408 91.5863 24.7336 91.5863 24.0365V22.8035C91.3262 23.2093 90.9672 23.5396 90.5094 23.7945C90.0516 24.0495 89.5158 24.1769 88.9019 24.1769C88.184 24.1769 87.5337 23.9922 86.951 23.6229C86.3684 23.2535 85.908 22.7281 85.5698 22.0466C85.2317 21.3651 85.0626 20.577 85.0626 19.6821C85.0626 18.7874 85.2317 18.0018 85.5698 17.3255C85.908 16.6492 86.3684 16.129 86.951 15.7648C87.5337 15.4007 88.184 15.2186 88.9019 15.2186ZM91.5863 19.6978C91.5863 19.0318 91.4016 18.5064 91.0322 18.1215C90.6629 17.7365 90.2129 17.544 89.6822 17.544C89.1516 17.544 88.7016 17.7339 88.3323 18.1137C87.9629 18.4934 87.7782 19.0163 87.7782 19.6821C87.7782 20.3481 87.9629 20.8761 88.3323 21.2662C88.7016 21.6564 89.1516 21.8515 89.6822 21.8515C90.2129 21.8515 90.6629 21.659 91.0322 21.274C91.4016 20.8891 91.5863 20.3637 91.5863 19.6978Z" fill="#0264D3" stroke="#0264D3" stroke-width="0.0762" stroke-miterlimit="22.9256"/>
<path d="M97.5326 14.4381C97.0643 14.4381 96.682 14.3003 96.3854 14.0246C96.0889 13.7489 95.9407 13.4081 95.9407 13.0023C95.9407 12.5862 96.0889 12.2402 96.3854 11.9645C96.682 11.6888 97.0643 11.5509 97.5326 11.5509C97.9903 11.5509 98.3675 11.6888 98.664 11.9645C98.9605 12.2402 99.1088 12.5862 99.1088 13.0023C99.1088 13.4081 98.9605 13.7489 98.664 14.0246C98.3675 14.3003 97.9903 14.4381 97.5326 14.4381ZM98.8591 15.3433V24.0519H96.1904V15.3433H98.8591Z" fill="#0264D3" stroke="#0264D3" stroke-width="0.0762" stroke-miterlimit="22.9256"/>
<path d="M105.648 21.7891V24.052H104.29C103.322 24.052 102.568 23.8154 102.027 23.3419C101.486 22.8685 101.216 22.096 101.216 21.0243V17.5596H100.154V15.3434H101.216V13.2209H103.884V15.3434H105.632V17.5596H103.884V21.0555C103.884 21.3156 103.947 21.503 104.072 21.6174C104.197 21.7319 104.405 21.7891 104.696 21.7891H105.648Z" fill="#0264D3" stroke="#0264D3" stroke-width="0.0762" stroke-miterlimit="22.9256"/>
<path d="M106.6 19.6821C106.6 18.7874 106.769 18.0018 107.107 17.3255C107.445 16.6492 107.906 16.129 108.488 15.7648C109.071 15.4007 109.721 15.2186 110.439 15.2186C111.053 15.2186 111.591 15.3434 112.054 15.5931C112.517 15.8429 112.874 16.1706 113.123 16.5764V15.3434H115.792V24.052H113.123V22.8191C112.863 23.2249 112.502 23.5526 112.039 23.8023C111.576 24.052 111.037 24.1769 110.424 24.1769C109.716 24.1769 109.071 23.9922 108.488 23.6229C107.906 23.2535 107.445 22.7281 107.107 22.0466C106.769 21.3651 106.6 20.577 106.6 19.6821ZM113.123 19.6978C113.123 19.0318 112.939 18.5064 112.569 18.1215C112.2 17.7365 111.75 17.544 111.219 17.544C110.689 17.544 110.239 17.7339 109.87 18.1137C109.5 18.4934 109.315 19.0163 109.315 19.6821C109.315 20.3481 109.5 20.8761 109.87 21.2662C110.239 21.6564 110.689 21.8515 111.219 21.8515C111.75 21.8515 112.2 21.659 112.569 21.274C112.939 20.8891 113.123 20.3637 113.123 19.6978Z" fill="#0264D3" stroke="#0264D3" stroke-width="0.0762" stroke-miterlimit="22.9256"/>
<path d="M120.396 12.503V24.052H117.728V12.503H120.396Z" fill="#0264D3" stroke="#0264D3" stroke-width="0.0762" stroke-miterlimit="22.9256"/>
<path d="M76.5726 32.0309V33.1858H73.6073V42.9088H72.1871V33.1858H69.2062V32.0309H76.5726Z" fill="#0264D3" stroke="#0264D3" stroke-width="0.0762" stroke-miterlimit="22.9256"/>
<path d="M77.7898 38.6012C77.7898 37.7273 77.9667 36.9599 78.3204 36.2993C78.6742 35.6386 79.1606 35.1262 79.7797 34.762C80.3987 34.3979 81.088 34.2157 81.8476 34.2157C82.5967 34.2157 83.247 34.377 83.7984 34.6995C84.3498 35.0221 84.7608 35.4279 85.0314 35.9169V34.3562H86.4671V42.9087H85.0314V41.3169C84.7504 41.8163 84.3317 42.2299 83.775 42.5576C83.2184 42.8854 82.5707 43.0492 81.8319 43.0492C81.0725 43.0492 80.3857 42.8619 79.7719 42.4874C79.158 42.1128 78.6742 41.5874 78.3204 40.9111C77.9667 40.2347 77.7898 39.4648 77.7898 38.6012ZM85.0314 38.6169C85.0314 37.9718 84.9013 37.4099 84.6411 36.9313C84.3811 36.4527 84.0299 36.086 83.5877 35.8311C83.1455 35.5761 82.6591 35.4487 82.1285 35.4487C81.5978 35.4487 81.1141 35.5736 80.677 35.8233C80.2401 36.073 79.8915 36.4372 79.6314 36.9158C79.3713 37.3944 79.2412 37.9562 79.2412 38.6012C79.2412 39.2567 79.3713 39.8264 79.6314 40.3102C79.8915 40.794 80.2401 41.1634 80.677 41.4183C81.1141 41.6732 81.5978 41.8007 82.1285 41.8007C82.6591 41.8007 83.1455 41.6732 83.5877 41.4183C84.0299 41.1634 84.3811 40.794 84.6411 40.3102C84.9013 39.8264 85.0314 39.262 85.0314 38.6169Z" fill="#0264D3" stroke="#0264D3" stroke-width="0.0762" stroke-miterlimit="22.9256"/>
<path d="M90.2908 31.3599V42.9089H88.8706V31.3599H90.2908Z" fill="#0264D3" stroke="#0264D3" stroke-width="0.0762" stroke-miterlimit="22.9256"/>
<path d="M100.777 38.3047C100.777 38.5753 100.762 38.8614 100.73 39.1631H93.8946C93.9465 40.0059 94.2353 40.664 94.7607 41.1374C95.2862 41.6107 95.9234 41.8475 96.6725 41.8475C97.2864 41.8475 97.7988 41.7044 98.2099 41.4183C98.6208 41.1322 98.9095 40.7498 99.076 40.2712H100.605C100.377 41.0932 99.9188 41.7616 99.232 42.2767C98.5454 42.7917 97.6922 43.0492 96.6725 43.0492C95.861 43.0492 95.1353 42.8671 94.4954 42.5029C93.8555 42.1388 93.3535 41.6212 92.9894 40.9501C92.6252 40.279 92.4431 39.5012 92.4431 38.6169C92.4431 37.7325 92.62 36.9574 92.9738 36.2914C93.3275 35.6256 93.8243 35.1131 94.4642 34.7542C95.1041 34.3952 95.8402 34.2157 96.6725 34.2157C97.4841 34.2157 98.202 34.3926 98.8263 34.7464C99.4506 35.1001 99.9318 35.5866 100.27 36.2056C100.608 36.8247 100.777 37.5244 100.777 38.3047ZM99.3101 38.0082C99.3101 37.4671 99.1904 37.0016 98.9512 36.6114C98.7118 36.2212 98.3867 35.9247 97.9757 35.7218C97.5647 35.5189 97.1096 35.4175 96.6101 35.4175C95.8922 35.4175 95.2809 35.6464 94.7763 36.1042C94.2717 36.562 93.983 37.1966 93.9101 38.0082H99.3101Z" fill="#0264D3" stroke="#0264D3" stroke-width="0.0762" stroke-miterlimit="22.9256"/>
<path d="M106.817 34.2002C107.857 34.2002 108.7 34.515 109.345 35.1444C109.99 35.7739 110.313 36.6817 110.313 37.8678V42.9088H108.908V38.0707C108.908 37.2175 108.695 36.5646 108.268 36.1121C107.842 35.6594 107.259 35.4331 106.52 35.4331C105.771 35.4331 105.176 35.6672 104.734 36.1355C104.291 36.6037 104.07 37.2851 104.07 38.1799V42.9088H102.65V34.3563H104.07V35.5736C104.351 35.1366 104.734 34.7985 105.217 34.5592C105.701 34.3198 106.234 34.2002 106.817 34.2002Z" fill="#0264D3" stroke="#0264D3" stroke-width="0.0762" stroke-miterlimit="22.9256"/>
<path d="M114.371 35.5269V40.5679C114.371 40.9841 114.459 41.278 114.636 41.4497C114.813 41.6213 115.12 41.7071 115.557 41.7071H116.602V42.9089H115.323C114.532 42.9089 113.939 42.7268 113.544 42.3627C113.148 41.9985 112.95 41.4002 112.95 40.5679V35.5269H111.842V34.3564H112.95V32.2026H114.371V34.3564H116.602V35.5269H114.371Z" fill="#0264D3" stroke="#0264D3" stroke-width="0.0762" stroke-miterlimit="22.9256"/>
<path d="M129.437 32.0309V42.9088H128.017V37.977H122.476V42.9088H121.056V32.0309H122.476V36.8066H128.017V32.0309H129.437Z" fill="#0264D3" stroke="#0264D3" stroke-width="0.0762" stroke-miterlimit="22.9256"/>
<path d="M139.441 34.3563V42.9088H138.021V41.6446C137.75 42.0816 137.373 42.4224 136.889 42.6669C136.405 42.9113 135.872 43.0336 135.289 43.0336C134.624 43.0336 134.025 42.8957 133.495 42.62C132.964 42.3443 132.545 41.9308 132.238 41.3793C131.931 40.8278 131.778 40.1567 131.778 39.366V34.3563H133.182V39.1788C133.182 40.0215 133.396 40.6692 133.822 41.1218C134.249 41.5744 134.832 41.8007 135.57 41.8007C136.33 41.8007 136.928 41.5666 137.365 41.0984C137.802 40.6302 138.021 39.9487 138.021 39.0539V34.3563H139.441Z" fill="#0264D3" stroke="#0264D3" stroke-width="0.0762" stroke-miterlimit="22.9256"/>
<path d="M143.264 35.9483C143.556 35.4385 143.982 35.0223 144.544 34.6997C145.106 34.3772 145.746 34.2159 146.464 34.2159C147.234 34.2159 147.926 34.398 148.54 34.7621C149.153 35.1263 149.637 35.6388 149.991 36.2995C150.345 36.9601 150.522 37.7275 150.522 38.6014C150.522 39.465 150.345 40.2349 149.991 40.9112C149.637 41.5875 149.151 42.113 148.532 42.4875C147.913 42.8621 147.223 43.0494 146.464 43.0494C145.725 43.0494 145.077 42.8881 144.521 42.5655C143.964 42.243 143.545 41.832 143.264 41.3326V42.9089H141.844V31.3599H143.264V35.9483ZM149.07 38.6014C149.07 37.9564 148.94 37.3945 148.68 36.9159C148.42 36.4373 148.069 36.0732 147.627 35.8235C147.184 35.5737 146.698 35.4489 146.167 35.4489C145.647 35.4489 145.166 35.5763 144.724 35.8312C144.281 36.0862 143.928 36.4555 143.662 36.9393C143.397 37.4231 143.264 37.9824 143.264 38.6171C143.264 39.2621 143.397 39.8265 143.662 40.3104C143.928 40.7942 144.281 41.1636 144.724 41.4185C145.166 41.6734 145.647 41.8008 146.167 41.8008C146.698 41.8008 147.184 41.6734 147.627 41.4185C148.069 41.1636 148.42 40.7942 148.68 40.3104C148.94 39.8265 149.07 39.2569 149.07 38.6014Z" fill="#0264D3" stroke="#0264D3" stroke-width="0.0762" stroke-miterlimit="22.9256"/>
</svg>
